<svg width="256" height="256" viewBox="0 0 256 256" fill="none" xmlns="http://www.w3.org/2000/svg">
<rect width="256" height="256" fill="white"/>
<path fill-rule="evenodd" clip-rule="evenodd" d="M73.5101 146.777V89.4373C73.5101 84.3808 73.3313 80.1261 72.99 76.6406C72.6325 73.155 71.9337 70.3404 70.8936 68.1967C69.8373 66.0529 68.3747 64.5147 66.457 63.5492C64.5556 62.5837 62.0529 62.1092 58.9489 62.1092C56.8525 62.1092 54.6098 62.5347 52.2209 63.3529C49.8482 64.1874 47.443 65.3166 44.989 66.7566C42.5514 68.1966 40.0812 69.8658 37.611 71.7477C35.1408 73.6296 32.7518 75.5933 30.4766 77.6388V146.777H10V4H30.4766V60.1946C32.6218 58.0181 35.0433 55.9072 37.7085 53.8616C40.3737 51.8161 43.1852 50.0161 46.1266 48.4451C49.0844 46.8905 52.1396 45.6305 55.2761 44.7141C58.4126 43.7813 61.5816 43.3231 64.7506 43.3231C70.2761 43.3231 74.9077 44.125 78.6455 45.7123C82.3995 47.316 85.3898 49.656 87.6487 52.7652C89.9076 55.8581 91.5165 59.6709 92.5079 64.1711C93.4829 68.6876 93.9867 73.8423 93.9867 79.6516V146.777H73.5101Z" fill="black"/>
<path fill-rule="evenodd" clip-rule="evenodd" d="M101.799 234.963H77.1894L165.962 50.1927H190.571L101.799 234.963Z" fill="url(#paint0_linear_2_70)"/>
<path fill-rule="evenodd" clip-rule="evenodd" d="M245.163 232.187C243.488 235.276 241.558 238.029 239.354 240.446C237.15 242.88 234.587 244.928 231.648 246.59C228.71 248.269 225.395 249.545 221.688 250.435C217.98 251.324 213.829 251.761 209.216 251.761C201.015 251.761 194.13 250.384 188.56 247.631C182.973 244.878 178.48 241.084 175.046 236.266C171.594 231.449 169.134 225.724 167.631 219.11C166.127 212.479 165.375 205.294 165.375 197.556C165.375 189.162 166.195 181.574 167.836 174.792C169.459 168.01 172.039 162.236 175.541 157.485C179.043 152.734 183.554 149.058 189.055 146.473C194.557 143.871 201.22 142.578 209.028 142.578C217.297 142.578 224.216 144.19 229.803 147.396C235.373 150.619 240.054 155.571 243.864 162.252L233.254 168.548C231.853 165.996 230.35 163.78 228.744 161.9C227.138 160.037 225.361 158.492 223.396 157.284C221.414 156.075 219.228 155.152 216.836 154.53C214.427 153.909 211.693 153.59 208.618 153.59C198.145 153.59 190.542 157.334 185.792 164.804C181.059 172.291 178.685 183.337 178.685 197.958C178.685 204.388 179.214 210.213 180.239 215.467C181.282 220.705 182.973 225.221 185.348 228.998C187.723 232.758 190.849 235.679 194.762 237.744C198.657 239.808 203.492 240.849 209.216 240.849C212.496 240.849 215.383 240.497 217.878 239.808C220.389 239.12 222.645 238.13 224.644 236.804C226.643 235.494 228.436 233.916 230.042 232.036C231.648 230.173 233.186 228.091 234.655 225.791L245.163 232.187Z" fill="black"/>
<defs>
<linearGradient id="paint0_linear_2_70" x1="77.1894" y1="234.963" x2="165.375" y2="50.1927" gradientUnits="userSpaceOnUse">
<stop stop-color="#FB8F58"/>
<stop offset="0.408654" stop-color="#DE0866"/>
<stop offset="1" stop-color="#AC41EC"/>
</linearGradient>
</defs>
</svg>
