<svg width="256" height="256" viewBox="0 0 256 256" fill="none" xmlns="http://www.w3.org/2000/svg">
<rect width="256" height="256" fill="white"/>
<path d="M218.801 180.751L128.503 233L38.2041 180.751V142.042C39.1139 142.279 40.03 142.518 40.9709 142.749C43.6026 143.397 46.3403 144.011 49.1822 144.594V174.393L128.503 220.289L207.818 174.393V144.594C211.668 143.802 215.338 142.95 218.801 142.042V180.751ZM155.882 104.25C162.682 101.975 170.022 101.903 176.866 104.04C183.71 106.177 189.714 110.415 194.021 116.159L184.392 121.73L183.55 120.787C181.822 118.948 179.807 117.403 177.582 116.216L176.458 115.655C173.784 114.41 170.9 113.693 167.964 113.532L166.704 113.496C162.81 113.495 158.978 114.478 155.563 116.352L154.308 117.092C151.439 118.91 148.998 121.343 147.164 124.22L146.421 125.473C144.776 128.45 143.8 131.758 143.571 135.165C143.309 139.058 144.03 142.957 145.668 146.497C147.306 150.037 149.81 153.108 152.943 155.424C156.076 157.738 159.74 159.226 163.597 159.748C166.973 160.205 170.405 159.908 173.644 158.888L175.02 158.406C178.653 157.006 181.877 154.712 184.392 151.734L194.021 157.305C189.714 163.049 183.71 167.287 176.866 169.424C170.45 171.428 163.598 171.488 157.164 169.613L155.882 169.214C149.507 167.082 143.911 163.115 139.784 157.824L138.979 156.75C135.051 151.285 132.825 144.789 132.561 138.079L132.535 136.732C132.535 129.996 134.514 123.419 138.215 117.82L138.979 116.714C142.907 111.25 148.349 107.075 154.617 104.7L155.882 104.25ZM218.801 76.2487V94.9509C237.592 100.127 248.999 106.928 249 114.382C249 126.383 219.42 136.707 177.049 141.256C176.041 143.576 174.282 145.49 172.059 146.691L171.212 147.105C169.485 147.859 167.597 148.167 165.72 148.002L164.784 147.881C162.607 147.504 160.597 146.493 158.994 144.988L158.33 144.317C156.638 142.437 155.626 140.039 155.454 137.513C155.282 134.988 155.958 132.477 157.378 130.384C158.799 128.291 160.881 126.738 163.288 125.971C165.695 125.204 168.292 125.268 170.658 126.154C173.023 127.041 175.023 128.7 176.338 130.861C211.714 127.776 236.442 120.606 237.949 114.927L238.022 114.382C238.02 109.888 230.921 106.68 218.801 103.914V115.944C215.683 116.798 212.024 117.668 207.818 118.512V82.6068L128.503 36.711L49.1822 82.6068V118.35C44.7685 117.494 41.1491 116.653 38.1989 115.865V104.003C26.0788 106.955 18.9833 110.533 18.9833 114.387C18.9889 119.439 36.7419 125.131 64.0515 128.812V103.715H75.0348V130.122C86.3977 131.319 99.0106 132.167 112.415 132.523V103.71H123.398V169.749H112.415V143.468C99.1509 143.036 86.5696 142.085 75.0348 140.689V169.749H64.0515V139.18C31.4192 134.141 9.40773 125.386 8.06276 115.357L8 114.382C8 106.931 19.4121 100.127 38.2041 94.9509V76.2487L128.503 24L218.801 76.2487Z" fill="black"/>
</svg>
