<svg width="256" height="256" viewBox="0 0 256 256" fill="none" xmlns="http://www.w3.org/2000/svg">
<rect width="256" height="256" fill="white"/>
<path d="M37.5754 78.4097L128.462 25.8558L219.394 78.4556L219.425 176.503L234 184.939L233.954 70.0353L128.462 9L23 69.9742L23.0305 185L37.6059 176.564L37.5754 78.4097Z" fill="url(#paint0_linear_2_146)"/>
<path d="M52.75 87.4458L128.462 43.247L204.204 87.4919L204.235 168.823L213 173.939L212.97 82.3761L128.462 33L44 82.33L44.0152 174L52.7804 168.884L52.75 87.4458Z" fill="url(#paint1_linear_2_146)"/>
<path d="M204.831 176.075L128.592 219.45L52.3219 176.03V176L28 189.775V189.805L128.515 247L229 189.865V189.82L204.831 176.03V176.075Z" fill="#000A2F"/>
<path d="M122.985 199.442H122.969V187.347L104.392 176.727L77.5087 161.35L77.524 151.642L104.392 167.003L104.377 151.505L77.524 136.144V126.42L104.377 141.765L122.954 152.386V135.323L104.407 124.703L77.5855 109.341V109.326L63 101V169.677L123 204L122.985 199.442Z" fill="black"/>
<path d="M166.764 103.303L188 91.1523L172.658 82.3668L151.421 94.5325L158.377 98.5369H158.362L151.406 94.5325L151.421 94.5172L120.998 77.1137L117.89 78.8952L120.998 77.1137L142.234 64.9785L128.385 57.0609L128.292 57L69 90.8782L69.0923 90.9239L73.8782 93.6646L82.9574 98.8415L110.072 83.3565L106.625 85.3206L137.033 102.709L113.335 116.23L128.415 124.878L128.646 125L166.733 103.303L164.209 101.887H164.24L166.764 103.303Z" fill="black"/>
<path d="M192.899 105.355L194 103.011V101L185.584 105.885L178.389 110.043L163.005 141.755L147.906 127.691L134.769 135.298L156.383 155.411L134 201.52V204L150.893 194.216L165.297 163.729L179.958 177.384L193.095 169.793L171.813 149.952L192.899 105.355Z" fill="black"/>
<defs>
<linearGradient id="paint0_linear_2_146" x1="22.9942" y1="96.998" x2="233.993" y2="96.998" gradientUnits="userSpaceOnUse">
<stop offset="8.27167e-07" stop-color="#3D82FF"/>
<stop offset="0.335" stop-color="#68C1EF"/>
<stop offset="1" stop-color="#92FEE0"/>
</linearGradient>
<linearGradient id="paint1_linear_2_146" x1="43.9943" y1="103.501" x2="212.993" y2="103.501" gradientUnits="userSpaceOnUse">
<stop offset="1.44511e-06" stop-color="#FF7A62"/>
<stop offset="0.335" stop-color="#E87089"/>
<stop offset="1" stop-color="#D368B6"/>
</linearGradient>
</defs>
</svg>
