<svg width="256" height="256" viewBox="0 0 256 256" fill="none" xmlns="http://www.w3.org/2000/svg">
<rect width="256" height="256" fill="white"/>
<path d="M127.838 127.624L236.815 127.622L182.324 221.998L73.3471 222L127.838 127.624Z" fill="black"/>
<path d="M73.3471 222L236.815 127.622L209.572 80.4352L46.1039 174.813L73.3471 222Z" fill="black"/>
<path d="M100.595 80.4377L209.572 80.4352L155.081 174.811L46.1039 174.813L100.595 80.4377Z" fill="white"/>
<path d="M46.1039 174.813L209.572 80.4352L182.329 33.2486L18.8607 127.627L46.1039 174.813Z" fill="white" fill-opacity="0.954222"/>
<path d="M100.595 80.4377L209.572 80.4352L155.081 174.811L46.1039 174.813L100.595 80.4377Z" fill="black" fill-opacity="0.0479987"/>
<path d="M73.3514 33.2511L182.329 33.2486L127.838 127.624L18.8607 127.627L73.3514 33.2511Z" fill="#EB3300"/>
</svg>
